<mxfile host="app.diagrams.net" agent="Mozilla/5.0 (Windows NT 10.0; Win64; x64) AppleWebKit/537.36 (KHTML, like Gecko) Chrome/140.0.0.0 Safari/537.36" version="28.2.1">
  <diagram name="Page-1" id="-9DFJWCf_A8hHbZbv3x-">
    <mxGraphModel dx="1158" dy="593" grid="1" gridSize="10" guides="1" tooltips="1" connect="1" arrows="1" fold="1" page="1" pageScale="1" pageWidth="850" pageHeight="1100" math="0" shadow="0">
      <root>
        <mxCell id="0" />
        <mxCell id="1" parent="0" />
        <mxCell id="b_6LbuOJ_TKxJGMj5TY7-24" value="" style="rounded=0;whiteSpace=wrap;html=1;" vertex="1" parent="1">
          <mxGeometry x="10" y="120" width="810" height="390" as="geometry" />
        </mxCell>
        <mxCell id="A7545c9IUv74hmtb4mRO-1" value="" style="rounded=0;whiteSpace=wrap;html=1;fillColor=none;dashed=1;dashPattern=1 4;" parent="1" vertex="1">
          <mxGeometry x="30" y="140" width="170" height="360" as="geometry" />
        </mxCell>
        <mxCell id="A7545c9IUv74hmtb4mRO-2" value="&lt;font style=&quot;font-size: 16px;&quot;&gt;Sources&lt;/font&gt;" style="rounded=0;whiteSpace=wrap;html=1;strokeColor=none;" parent="1" vertex="1">
          <mxGeometry x="66.25" y="130" width="97.5" height="30" as="geometry" />
        </mxCell>
        <mxCell id="A7545c9IUv74hmtb4mRO-18" style="edgeStyle=orthogonalEdgeStyle;rounded=0;orthogonalLoop=1;jettySize=auto;html=1;" parent="1" source="A7545c9IUv74hmtb4mRO-3" target="A7545c9IUv74hmtb4mRO-15" edge="1">
          <mxGeometry relative="1" as="geometry" />
        </mxCell>
        <mxCell id="A7545c9IUv74hmtb4mRO-19" style="edgeStyle=orthogonalEdgeStyle;rounded=0;orthogonalLoop=1;jettySize=auto;html=1;" parent="1" source="A7545c9IUv74hmtb4mRO-3" target="A7545c9IUv74hmtb4mRO-14" edge="1">
          <mxGeometry relative="1" as="geometry" />
        </mxCell>
        <mxCell id="A7545c9IUv74hmtb4mRO-20" style="edgeStyle=orthogonalEdgeStyle;rounded=0;orthogonalLoop=1;jettySize=auto;html=1;" parent="1" source="A7545c9IUv74hmtb4mRO-3" target="A7545c9IUv74hmtb4mRO-16" edge="1">
          <mxGeometry relative="1" as="geometry" />
        </mxCell>
        <mxCell id="A7545c9IUv74hmtb4mRO-3" value="" style="image;aspect=fixed;html=1;points=[];align=center;fontSize=12;image=img/lib/azure2/general/Folder_Blank.svg;" parent="1" vertex="1">
          <mxGeometry x="80.5" y="227" width="69" height="56.00000000000001" as="geometry" />
        </mxCell>
        <mxCell id="A7545c9IUv74hmtb4mRO-4" value="&lt;b&gt;&lt;font style=&quot;font-size: 15px;&quot;&gt;CRM&lt;/font&gt;&lt;/b&gt;" style="text;html=1;align=center;verticalAlign=middle;whiteSpace=wrap;rounded=0;" parent="1" vertex="1">
          <mxGeometry x="85" y="283" width="60" height="30" as="geometry" />
        </mxCell>
        <mxCell id="A7545c9IUv74hmtb4mRO-24" style="edgeStyle=orthogonalEdgeStyle;rounded=0;orthogonalLoop=1;jettySize=auto;html=1;entryX=0;entryY=0.5;entryDx=0;entryDy=0;" parent="1" source="A7545c9IUv74hmtb4mRO-8" target="A7545c9IUv74hmtb4mRO-22" edge="1">
          <mxGeometry relative="1" as="geometry" />
        </mxCell>
        <mxCell id="A7545c9IUv74hmtb4mRO-25" style="edgeStyle=orthogonalEdgeStyle;rounded=0;orthogonalLoop=1;jettySize=auto;html=1;entryX=0;entryY=0.5;entryDx=0;entryDy=0;" parent="1" source="A7545c9IUv74hmtb4mRO-8" target="A7545c9IUv74hmtb4mRO-21" edge="1">
          <mxGeometry relative="1" as="geometry" />
        </mxCell>
        <mxCell id="A7545c9IUv74hmtb4mRO-26" style="edgeStyle=orthogonalEdgeStyle;rounded=0;orthogonalLoop=1;jettySize=auto;html=1;" parent="1" source="A7545c9IUv74hmtb4mRO-8" target="A7545c9IUv74hmtb4mRO-23" edge="1">
          <mxGeometry relative="1" as="geometry" />
        </mxCell>
        <mxCell id="A7545c9IUv74hmtb4mRO-8" value="" style="image;aspect=fixed;html=1;points=[];align=center;fontSize=12;image=img/lib/azure2/general/Folder_Blank.svg;" parent="1" vertex="1">
          <mxGeometry x="80.5" y="370" width="69" height="56.00000000000001" as="geometry" />
        </mxCell>
        <mxCell id="A7545c9IUv74hmtb4mRO-9" value="&lt;b&gt;&lt;font style=&quot;font-size: 15px;&quot;&gt;ERP&lt;/font&gt;&lt;/b&gt;" style="text;html=1;align=center;verticalAlign=middle;whiteSpace=wrap;rounded=0;" parent="1" vertex="1">
          <mxGeometry x="85" y="426" width="60" height="30" as="geometry" />
        </mxCell>
        <mxCell id="A7545c9IUv74hmtb4mRO-10" value="" style="rounded=1;whiteSpace=wrap;html=1;fillStyle=dots;fillColor=none;strokeColor=#d79b00;" parent="1" vertex="1">
          <mxGeometry x="245" y="180" width="160" height="320" as="geometry" />
        </mxCell>
        <mxCell id="A7545c9IUv74hmtb4mRO-11" value="&lt;b&gt;&lt;font style=&quot;font-size: 13px;&quot;&gt;Bronze Layer&lt;/font&gt;&lt;/b&gt;" style="rounded=1;whiteSpace=wrap;html=1;fillStyle=auto;fillColor=#FFCE9F;strokeColor=#FFB570;" parent="1" vertex="1">
          <mxGeometry x="250" y="140" width="150" height="30" as="geometry" />
        </mxCell>
        <mxCell id="z5z2wsJUSJk8xxVgns9J-9" style="edgeStyle=orthogonalEdgeStyle;rounded=0;orthogonalLoop=1;jettySize=auto;html=1;" parent="1" source="A7545c9IUv74hmtb4mRO-14" target="z5z2wsJUSJk8xxVgns9J-3" edge="1">
          <mxGeometry relative="1" as="geometry" />
        </mxCell>
        <mxCell id="A7545c9IUv74hmtb4mRO-14" value="&lt;span style=&quot;font-size: 13px;&quot;&gt;crm_sales_details&lt;/span&gt;" style="rounded=1;whiteSpace=wrap;html=1;fillStyle=auto;fillColor=#FFCE9F;strokeColor=#FFB570;" parent="1" vertex="1">
          <mxGeometry x="255" y="197" width="140" height="30" as="geometry" />
        </mxCell>
        <mxCell id="z5z2wsJUSJk8xxVgns9J-10" style="edgeStyle=orthogonalEdgeStyle;rounded=0;orthogonalLoop=1;jettySize=auto;html=1;entryX=0;entryY=0.5;entryDx=0;entryDy=0;" parent="1" source="A7545c9IUv74hmtb4mRO-15" target="z5z2wsJUSJk8xxVgns9J-4" edge="1">
          <mxGeometry relative="1" as="geometry" />
        </mxCell>
        <mxCell id="A7545c9IUv74hmtb4mRO-15" value="&lt;span style=&quot;font-size: 13px;&quot;&gt;crm_cust_info&lt;/span&gt;" style="rounded=1;whiteSpace=wrap;html=1;fillStyle=auto;fillColor=#FFCE9F;strokeColor=#FFB570;" parent="1" vertex="1">
          <mxGeometry x="255" y="240" width="140" height="30" as="geometry" />
        </mxCell>
        <mxCell id="z5z2wsJUSJk8xxVgns9J-11" style="edgeStyle=orthogonalEdgeStyle;rounded=0;orthogonalLoop=1;jettySize=auto;html=1;" parent="1" source="A7545c9IUv74hmtb4mRO-16" target="z5z2wsJUSJk8xxVgns9J-5" edge="1">
          <mxGeometry relative="1" as="geometry" />
        </mxCell>
        <mxCell id="A7545c9IUv74hmtb4mRO-16" value="&lt;span style=&quot;font-size: 13px;&quot;&gt;crm_prd_info&lt;/span&gt;" style="rounded=1;whiteSpace=wrap;html=1;fillStyle=auto;fillColor=#FFCE9F;strokeColor=#FFB570;" parent="1" vertex="1">
          <mxGeometry x="255" y="283" width="140" height="30" as="geometry" />
        </mxCell>
        <mxCell id="z5z2wsJUSJk8xxVgns9J-12" style="edgeStyle=orthogonalEdgeStyle;rounded=0;orthogonalLoop=1;jettySize=auto;html=1;entryX=0;entryY=0.5;entryDx=0;entryDy=0;" parent="1" source="A7545c9IUv74hmtb4mRO-21" target="z5z2wsJUSJk8xxVgns9J-6" edge="1">
          <mxGeometry relative="1" as="geometry" />
        </mxCell>
        <mxCell id="A7545c9IUv74hmtb4mRO-21" value="&lt;span style=&quot;font-size: 13px;&quot;&gt;erp_cust_az12&lt;/span&gt;" style="rounded=1;whiteSpace=wrap;html=1;fillStyle=auto;fillColor=#FFCE9F;strokeColor=#FFB570;" parent="1" vertex="1">
          <mxGeometry x="255" y="340" width="140" height="30" as="geometry" />
        </mxCell>
        <mxCell id="z5z2wsJUSJk8xxVgns9J-13" style="edgeStyle=orthogonalEdgeStyle;rounded=0;orthogonalLoop=1;jettySize=auto;html=1;" parent="1" source="A7545c9IUv74hmtb4mRO-22" target="z5z2wsJUSJk8xxVgns9J-7" edge="1">
          <mxGeometry relative="1" as="geometry" />
        </mxCell>
        <mxCell id="A7545c9IUv74hmtb4mRO-22" value="&lt;span style=&quot;font-size: 13px;&quot;&gt;erp_loc_a101&lt;/span&gt;" style="rounded=1;whiteSpace=wrap;html=1;fillStyle=auto;fillColor=#FFCE9F;strokeColor=#FFB570;" parent="1" vertex="1">
          <mxGeometry x="255" y="383" width="140" height="30" as="geometry" />
        </mxCell>
        <mxCell id="z5z2wsJUSJk8xxVgns9J-14" style="edgeStyle=orthogonalEdgeStyle;rounded=0;orthogonalLoop=1;jettySize=auto;html=1;" parent="1" source="A7545c9IUv74hmtb4mRO-23" target="z5z2wsJUSJk8xxVgns9J-8" edge="1">
          <mxGeometry relative="1" as="geometry" />
        </mxCell>
        <mxCell id="A7545c9IUv74hmtb4mRO-23" value="&lt;span style=&quot;font-size: 13px;&quot;&gt;erp_px_cat_g1v2&lt;/span&gt;" style="rounded=1;whiteSpace=wrap;html=1;fillStyle=auto;fillColor=#FFCE9F;strokeColor=#FFB570;" parent="1" vertex="1">
          <mxGeometry x="255" y="426" width="140" height="30" as="geometry" />
        </mxCell>
        <mxCell id="z5z2wsJUSJk8xxVgns9J-1" value="" style="rounded=1;whiteSpace=wrap;html=1;fillStyle=hatch;strokeColor=#666666;fillColor=none;fontColor=#333333;" parent="1" vertex="1">
          <mxGeometry x="440" y="180" width="160" height="320" as="geometry" />
        </mxCell>
        <mxCell id="z5z2wsJUSJk8xxVgns9J-2" value="&lt;b&gt;&lt;font style=&quot;font-size: 13px;&quot;&gt;Silver Layer&lt;/font&gt;&lt;/b&gt;" style="rounded=1;whiteSpace=wrap;html=1;fillStyle=auto;fillColor=#f5f5f5;strokeColor=#666666;fontColor=#333333;" parent="1" vertex="1">
          <mxGeometry x="445" y="140" width="150" height="30" as="geometry" />
        </mxCell>
        <mxCell id="b_6LbuOJ_TKxJGMj5TY7-17" style="edgeStyle=orthogonalEdgeStyle;rounded=0;orthogonalLoop=1;jettySize=auto;html=1;exitX=1;exitY=0.5;exitDx=0;exitDy=0;" edge="1" parent="1" source="z5z2wsJUSJk8xxVgns9J-3" target="b_6LbuOJ_TKxJGMj5TY7-3">
          <mxGeometry relative="1" as="geometry" />
        </mxCell>
        <mxCell id="z5z2wsJUSJk8xxVgns9J-3" value="&lt;span style=&quot;font-size: 13px;&quot;&gt;crm_sales_details&lt;/span&gt;" style="rounded=1;whiteSpace=wrap;html=1;fillStyle=auto;fillColor=#f5f5f5;strokeColor=#666666;fontColor=#333333;" parent="1" vertex="1">
          <mxGeometry x="450" y="197" width="140" height="30" as="geometry" />
        </mxCell>
        <mxCell id="b_6LbuOJ_TKxJGMj5TY7-18" style="edgeStyle=orthogonalEdgeStyle;rounded=0;orthogonalLoop=1;jettySize=auto;html=1;exitX=1;exitY=0.5;exitDx=0;exitDy=0;entryX=0;entryY=0.5;entryDx=0;entryDy=0;anchorPointDirection=1;jumpStyle=none;" edge="1" parent="1" source="z5z2wsJUSJk8xxVgns9J-4" target="b_6LbuOJ_TKxJGMj5TY7-11">
          <mxGeometry relative="1" as="geometry">
            <mxPoint x="630" y="310" as="targetPoint" />
          </mxGeometry>
        </mxCell>
        <mxCell id="z5z2wsJUSJk8xxVgns9J-4" value="&lt;span style=&quot;font-size: 13px;&quot;&gt;crm_cust_info&lt;/span&gt;" style="rounded=1;whiteSpace=wrap;html=1;fillStyle=auto;fillColor=#f5f5f5;strokeColor=#666666;fontColor=#333333;" parent="1" vertex="1">
          <mxGeometry x="450" y="240" width="140" height="30" as="geometry" />
        </mxCell>
        <mxCell id="b_6LbuOJ_TKxJGMj5TY7-19" style="edgeStyle=orthogonalEdgeStyle;rounded=0;orthogonalLoop=1;jettySize=auto;html=1;exitX=1;exitY=0.5;exitDx=0;exitDy=0;entryX=0;entryY=0.5;entryDx=0;entryDy=0;jumpStyle=none;" edge="1" parent="1" source="z5z2wsJUSJk8xxVgns9J-5" target="b_6LbuOJ_TKxJGMj5TY7-12">
          <mxGeometry relative="1" as="geometry">
            <Array as="points">
              <mxPoint x="610" y="298" />
              <mxPoint x="610" y="441" />
            </Array>
          </mxGeometry>
        </mxCell>
        <mxCell id="z5z2wsJUSJk8xxVgns9J-5" value="&lt;span style=&quot;font-size: 13px;&quot;&gt;crm_prd_info&lt;/span&gt;" style="rounded=1;whiteSpace=wrap;html=1;fillStyle=auto;fillColor=#f5f5f5;strokeColor=#666666;fontColor=#333333;" parent="1" vertex="1">
          <mxGeometry x="450" y="283" width="140" height="30" as="geometry" />
        </mxCell>
        <mxCell id="b_6LbuOJ_TKxJGMj5TY7-20" style="edgeStyle=orthogonalEdgeStyle;rounded=0;orthogonalLoop=1;jettySize=auto;html=1;exitX=1;exitY=0.5;exitDx=0;exitDy=0;entryX=0;entryY=0.5;entryDx=0;entryDy=0;" edge="1" parent="1" source="z5z2wsJUSJk8xxVgns9J-6" target="b_6LbuOJ_TKxJGMj5TY7-11">
          <mxGeometry relative="1" as="geometry" />
        </mxCell>
        <mxCell id="z5z2wsJUSJk8xxVgns9J-6" value="&lt;span style=&quot;font-size: 13px;&quot;&gt;erp_cust_az12&lt;/span&gt;" style="rounded=1;whiteSpace=wrap;html=1;fillStyle=auto;fillColor=#f5f5f5;strokeColor=#666666;fontColor=#333333;" parent="1" vertex="1">
          <mxGeometry x="450" y="340" width="140" height="30" as="geometry" />
        </mxCell>
        <mxCell id="b_6LbuOJ_TKxJGMj5TY7-22" style="edgeStyle=orthogonalEdgeStyle;rounded=0;orthogonalLoop=1;jettySize=auto;html=1;exitX=1;exitY=0.5;exitDx=0;exitDy=0;entryX=0;entryY=0.5;entryDx=0;entryDy=0;" edge="1" parent="1" source="z5z2wsJUSJk8xxVgns9J-7" target="b_6LbuOJ_TKxJGMj5TY7-11">
          <mxGeometry relative="1" as="geometry" />
        </mxCell>
        <mxCell id="z5z2wsJUSJk8xxVgns9J-7" value="&lt;span style=&quot;color: rgb(0, 0, 0); font-size: 13px;&quot;&gt;erp_loc_a101&lt;/span&gt;" style="rounded=1;whiteSpace=wrap;html=1;fillStyle=auto;fillColor=#f5f5f5;strokeColor=#666666;fontColor=#333333;" parent="1" vertex="1">
          <mxGeometry x="450" y="383" width="140" height="30" as="geometry" />
        </mxCell>
        <mxCell id="b_6LbuOJ_TKxJGMj5TY7-23" style="edgeStyle=orthogonalEdgeStyle;rounded=0;orthogonalLoop=1;jettySize=auto;html=1;exitX=1;exitY=0.5;exitDx=0;exitDy=0;entryX=0;entryY=0.5;entryDx=0;entryDy=0;" edge="1" parent="1" source="z5z2wsJUSJk8xxVgns9J-8" target="b_6LbuOJ_TKxJGMj5TY7-12">
          <mxGeometry relative="1" as="geometry" />
        </mxCell>
        <mxCell id="z5z2wsJUSJk8xxVgns9J-8" value="&lt;span style=&quot;color: rgb(0, 0, 0); font-size: 13px;&quot;&gt;erp_px_cat_g1v2&lt;/span&gt;" style="rounded=1;whiteSpace=wrap;html=1;fillStyle=auto;fillColor=#f5f5f5;strokeColor=#666666;fontColor=#333333;" parent="1" vertex="1">
          <mxGeometry x="450" y="426" width="140" height="30" as="geometry" />
        </mxCell>
        <mxCell id="b_6LbuOJ_TKxJGMj5TY7-1" value="" style="rounded=1;whiteSpace=wrap;html=1;fillStyle=hatch;strokeColor=#d6b656;fillColor=none;" vertex="1" parent="1">
          <mxGeometry x="640" y="180" width="160" height="320" as="geometry" />
        </mxCell>
        <mxCell id="b_6LbuOJ_TKxJGMj5TY7-2" value="&lt;b&gt;&lt;font style=&quot;font-size: 13px;&quot;&gt;Gold Layer&lt;/font&gt;&lt;/b&gt;" style="rounded=1;whiteSpace=wrap;html=1;fillStyle=auto;fillColor=#fff2cc;strokeColor=#d6b656;" vertex="1" parent="1">
          <mxGeometry x="645" y="140" width="150" height="30" as="geometry" />
        </mxCell>
        <mxCell id="b_6LbuOJ_TKxJGMj5TY7-3" value="&lt;span style=&quot;font-size: 13px;&quot;&gt;fact_sales&lt;/span&gt;" style="rounded=1;whiteSpace=wrap;html=1;fillStyle=auto;fillColor=#fff2cc;strokeColor=#d6b656;" vertex="1" parent="1">
          <mxGeometry x="650" y="197" width="140" height="30" as="geometry" />
        </mxCell>
        <mxCell id="b_6LbuOJ_TKxJGMj5TY7-11" value="&lt;span style=&quot;font-size: 13px;&quot;&gt;dim_customers&lt;/span&gt;&lt;span style=&quot;color: rgba(0, 0, 0, 0); font-family: monospace; font-size: 0px; text-align: start; text-wrap-mode: nowrap;&quot;&gt;%3CmxGraphModel%3E%3Croot%3E%3CmxCell%20id%3D%220%22%2F%3E%3CmxCell%20id%3D%221%22%20parent%3D%220%22%2F%3E%3CmxCell%20id%3D%222%22%20value%3D%22%26lt%3Bspan%20style%3D%26quot%3Bfont-size%3A%2013px%3B%26quot%3B%26gt%3Bfact_sales%26lt%3B%2Fspan%26gt%3B%22%20style%3D%22rounded%3D1%3BwhiteSpace%3Dwrap%3Bhtml%3D1%3BfillStyle%3Dauto%3BfillColor%3D%23fff2cc%3BstrokeColor%3D%23d6b656%3B%22%20vertex%3D%221%22%20parent%3D%221%22%3E%3CmxGeometry%20x%3D%22650%22%20y%3D%22197%22%20width%3D%22140%22%20height%3D%2230%22%20as%3D%22geometry%22%2F%3E%3C%2FmxCell%3E%3C%2Froot%3E%3C%2FmxGraphModel%3E&lt;/span&gt;" style="rounded=1;whiteSpace=wrap;html=1;fillStyle=auto;fillColor=#fff2cc;strokeColor=#d6b656;" vertex="1" parent="1">
          <mxGeometry x="650" y="313" width="140" height="30" as="geometry" />
        </mxCell>
        <mxCell id="b_6LbuOJ_TKxJGMj5TY7-12" value="&lt;span style=&quot;font-size: 13px;&quot;&gt;dim_products&lt;/span&gt;&lt;span style=&quot;color: rgba(0, 0, 0, 0); font-family: monospace; font-size: 0px; text-align: start; text-wrap-mode: nowrap;&quot;&gt;%3CmxGraphModel%3E%3Croot%3E%3CmxCell%20id%3D%220%22%2F%3E%3CmxCell%20id%3D%221%22%20parent%3D%220%22%2F%3E%3CmxCell%20id%3D%222%22%20value%3D%22%26lt%3Bspan%20style%3D%26quot%3Bfont-size%3A%2013px%3B%26quot%3B%26gt%3Bfact_sales%26lt%3B%2Fspan%26gt%3B%22%20style%3D%22rounded%3D1%3BwhiteSpace%3Dwrap%3Bhtml%3D1%3BfillStyle%3Dauto%3BfillColor%3D%23fff2cc%3BstrokeColor%3D%23d6b656%3B%22%20vertex%3D%221%22%20parent%3D%221%22%3E%3CmxGeometry%20x%3D%22650%22%20y%3D%22197%22%20width%3D%22140%22%20height%3D%2230%22%20as%3D%22geometry%22%2F%3E%3C%2FmxCell%3E%3C%2Froot%3E%3C%2FmxGraphModel%3E&lt;/span&gt;" style="rounded=1;whiteSpace=wrap;html=1;fillStyle=auto;fillColor=#fff2cc;strokeColor=#d6b656;" vertex="1" parent="1">
          <mxGeometry x="650" y="426" width="140" height="30" as="geometry" />
        </mxCell>
      </root>
    </mxGraphModel>
  </diagram>
</mxfile>
